<svg xmlns="http://www.w3.org/2000/svg" xmlns:xlink="http://www.w3.org/1999/xlink" width="500" zoomAndPan="magnify" viewBox="0 0 375 374.999991" height="500" preserveAspectRatio="xMidYMid meet" version="1.2"><defs><clipPath id="1187b87ee4"><path d="M 187 188 L 253 188 L 253 233.933594 L 187 233.933594 Z M 187 188 "/></clipPath><clipPath id="424a1f6ea4"><rect x="0" width="111" y="0" height="11"/></clipPath></defs><g id="61a67ecd2d"><rect x="0" width="375" y="0" height="374.999991" style="fill:#ffffff;fill-opacity:1;stroke:none;"/><rect x="0" width="375" y="0" height="374.999991" style="fill:#ffffff;fill-opacity:1;stroke:none;"/><path style=" stroke:none;fill-rule:nonzero;fill:#f68712;fill-opacity:1;" d="M 167.484375 113.8125 C 165.015625 115.367188 161.820312 116.863281 157.785156 118.210938 C 148.820312 121.207031 139.378906 119.710938 130.40625 122.101562 C 128.136719 122.707031 124.761719 124.324219 122.714844 126.4375 C 122.714844 126.4375 128.972656 114.550781 147.210938 107.449219 C 148.855469 106.808594 150.597656 106.207031 152.445312 105.65625 C 163.644531 102.3125 160.488281 97.605469 155.585938 98.988281 C 155.585938 98.988281 159.644531 96.125 165.402344 96.34375 C 174.078125 96.675781 179.867188 106.015625 167.484375 113.8125 "/><path style=" stroke:none;fill-rule:nonzero;fill:#f68712;fill-opacity:1;" d="M 212.035156 113.886719 C 210.234375 121.496094 204.707031 128.179688 198.464844 133.546875 C 191.558594 139.496094 183.773438 143.828125 179.210938 146.011719 C 149.441406 160.28125 119.566406 154.933594 116.019531 169.480469 C 116.019531 169.480469 108.933594 156.398438 125.648438 147.128906 C 134.847656 142.027344 140.007812 139.390625 161.492188 131.582031 C 167.980469 129.222656 175.902344 126.34375 182.910156 121.734375 C 187.6875 118.59375 192.042969 114.648438 195.238281 109.515625 C 200.761719 100.628906 193.789062 91.808594 181.164062 91.0625 C 200.390625 89.984375 215.300781 100.113281 212.035156 113.886719 "/><path style=" stroke:none;fill-rule:nonzero;fill:#3871c1;fill-opacity:1;" d="M 222.945312 166.699219 C 216.75 171.492188 209.09375 176.015625 199.890625 180.09375 C 164.535156 195.757812 135.164062 192.328125 128.320312 207.308594 C 128.320312 207.308594 118.960938 187.664062 151.59375 177.015625 C 180.289062 167.65625 200.042969 158.648438 213.023438 150.066406 C 241.339844 131.359375 237.449219 114.675781 223.839844 100.78125 C 224.652344 101.273438 225.429688 101.753906 226.132812 102.203125 C 249.1875 118.402344 250.699219 145.242188 222.945312 166.699219 "/><path style=" stroke:none;fill-rule:nonzero;fill:#40b93c;fill-opacity:1;" d="M 251.308594 180.761719 C 247.273438 187.824219 241.359375 193.722656 234.28125 198.71875 C 225.789062 204.707031 215.609375 209.394531 204.964844 213.210938 C 190.988281 218.230469 156.65625 222.402344 155.546875 230.421875 C 155.546875 230.421875 151.167969 222.265625 166.699219 214.316406 C 184.527344 205.195312 203.296875 198.074219 220.996094 188.671875 C 222.722656 187.753906 226.039062 186.082031 229.933594 183.597656 C 242.03125 175.902344 259.722656 160.460938 252.824219 135.957031 C 253.078125 136.339844 265.6875 155.605469 251.308594 180.761719 "/><g clip-rule="nonzero" clip-path="url(#1187b87ee4)"><path style=" stroke:none;fill-rule:nonzero;fill:#40b93c;fill-opacity:1;" d="M 252.59375 188.183594 C 252.59375 188.183594 251.882812 198.742188 237.007812 212.371094 C 236.96875 212.410156 236.925781 212.449219 236.886719 212.484375 C 228.921875 219.753906 219.324219 225.007812 211.136719 228.457031 C 198.535156 233.761719 187.425781 233.851562 187.308594 233.886719 C 201.203125 229.53125 221.5 218.03125 235.949219 206.464844 C 244.058594 199.972656 250.328125 193.464844 252.59375 188.183594 "/></g><path style=" stroke:none;fill-rule:nonzero;fill:#fbc108;fill-opacity:1;" d="M 167.484375 113.8125 C 160.433594 110.871094 153.550781 108.84375 147.210938 107.449219 C 148.855469 106.808594 150.597656 106.207031 152.445312 105.65625 C 163.644531 102.3125 160.488281 97.605469 155.585938 98.988281 C 155.585938 98.988281 159.644531 96.125 165.402344 96.34375 C 174.078125 96.675781 179.867188 106.015625 167.484375 113.8125 "/><path style=" stroke:none;fill-rule:nonzero;fill:#fbc108;fill-opacity:1;" d="M 212.035156 113.886719 C 210.234375 121.496094 204.707031 128.179688 198.464844 133.546875 C 193.433594 128.917969 188.199219 125.019531 182.910156 121.734375 C 187.6875 118.59375 192.042969 114.648438 195.238281 109.515625 C 200.761719 100.628906 193.789062 91.808594 181.164062 91.0625 C 200.390625 89.984375 215.300781 100.113281 212.035156 113.886719 "/><path style=" stroke:none;fill-rule:nonzero;fill:#00adef;fill-opacity:1;" d="M 222.945312 166.699219 C 219.921875 160.578125 216.589844 155.050781 213.023438 150.066406 C 241.339844 131.359375 237.449219 114.675781 223.839844 100.78125 C 224.652344 101.273438 225.429688 101.753906 226.132812 102.203125 C 249.1875 118.402344 250.699219 145.242188 222.945312 166.699219 "/><path style=" stroke:none;fill-rule:nonzero;fill:#80cc28;fill-opacity:1;" d="M 252.59375 188.183594 C 252.59375 188.183594 251.882812 198.742188 237.007812 212.371094 C 236.679688 210.367188 236.328125 208.394531 235.949219 206.464844 C 244.058594 199.972656 250.328125 193.464844 252.59375 188.183594 "/><path style=" stroke:none;fill-rule:nonzero;fill:#80cc28;fill-opacity:1;" d="M 234.28125 198.71875 C 233.007812 193.382812 231.550781 188.351562 229.933594 183.597656 C 242.03125 175.902344 259.722656 160.460938 252.824219 135.957031 C 253.078125 136.339844 265.6875 155.605469 251.308594 180.761719 C 247.273438 187.824219 241.359375 193.722656 234.28125 198.71875 "/><g style="fill:#000000;fill-opacity:1;"><g transform="translate(98.71067, 267.738177)"><path style="stroke:none" d="M 15.78125 -9.09375 L 17.625 -9.09375 L 17.625 -2.15625 C 16.78125 -1.414062 15.773438 -0.84375 14.609375 -0.4375 C 13.453125 -0.0390625 12.234375 0.15625 10.953125 0.15625 C 9.128906 0.15625 7.488281 -0.238281 6.03125 -1.03125 C 4.570312 -1.832031 3.425781 -2.9375 2.59375 -4.34375 C 1.769531 -5.757812 1.359375 -7.34375 1.359375 -9.09375 C 1.359375 -10.84375 1.769531 -12.425781 2.59375 -13.84375 C 3.425781 -15.257812 4.570312 -16.363281 6.03125 -17.15625 C 7.488281 -17.957031 9.132812 -18.359375 10.96875 -18.359375 C 12.351562 -18.359375 13.625 -18.132812 14.78125 -17.6875 C 15.945312 -17.25 16.929688 -16.597656 17.734375 -15.734375 L 16.53125 -14.515625 C 15.09375 -15.929688 13.265625 -16.640625 11.046875 -16.640625 C 9.578125 -16.640625 8.25 -16.3125 7.0625 -15.65625 C 5.875 -15.007812 4.941406 -14.109375 4.265625 -12.953125 C 3.585938 -11.804688 3.25 -10.519531 3.25 -9.09375 C 3.25 -7.675781 3.585938 -6.394531 4.265625 -5.25 C 4.941406 -4.101562 5.867188 -3.203125 7.046875 -2.546875 C 8.222656 -1.890625 9.550781 -1.5625 11.03125 -1.5625 C 12.894531 -1.5625 14.476562 -2.03125 15.78125 -2.96875 Z M 15.78125 -9.09375 "/></g></g><g style="fill:#000000;fill-opacity:1;"><g transform="translate(117.450643, 267.738177)"><path style="stroke:none" d="M 2.96875 -18.203125 L 4.890625 -18.203125 L 4.890625 -1.65625 L 15.078125 -1.65625 L 15.078125 0 L 2.96875 0 Z M 2.96875 -18.203125 "/></g></g><g style="fill:#000000;fill-opacity:1;"><g transform="translate(131.408052, 267.738177)"><path style="stroke:none" d="M 10.921875 0.15625 C 9.117188 0.15625 7.484375 -0.242188 6.015625 -1.046875 C 4.554688 -1.859375 3.414062 -2.960938 2.59375 -4.359375 C 1.769531 -5.765625 1.359375 -7.34375 1.359375 -9.09375 C 1.359375 -10.84375 1.769531 -12.421875 2.59375 -13.828125 C 3.414062 -15.234375 4.554688 -16.335938 6.015625 -17.140625 C 7.484375 -17.953125 9.117188 -18.359375 10.921875 -18.359375 C 12.722656 -18.359375 14.347656 -17.957031 15.796875 -17.15625 C 17.242188 -16.363281 18.382812 -15.257812 19.21875 -13.84375 C 20.050781 -12.425781 20.46875 -10.84375 20.46875 -9.09375 C 20.46875 -7.34375 20.050781 -5.757812 19.21875 -4.34375 C 18.382812 -2.9375 17.242188 -1.832031 15.796875 -1.03125 C 14.347656 -0.238281 12.722656 0.15625 10.921875 0.15625 Z M 10.921875 -1.5625 C 12.359375 -1.5625 13.65625 -1.882812 14.8125 -2.53125 C 15.976562 -3.1875 16.890625 -4.085938 17.546875 -5.234375 C 18.203125 -6.390625 18.53125 -7.675781 18.53125 -9.09375 C 18.53125 -10.519531 18.203125 -11.804688 17.546875 -12.953125 C 16.890625 -14.109375 15.976562 -15.007812 14.8125 -15.65625 C 13.65625 -16.3125 12.359375 -16.640625 10.921875 -16.640625 C 9.484375 -16.640625 8.175781 -16.3125 7 -15.65625 C 5.832031 -15.007812 4.914062 -14.109375 4.25 -12.953125 C 3.582031 -11.804688 3.25 -10.519531 3.25 -9.09375 C 3.25 -7.675781 3.582031 -6.390625 4.25 -5.234375 C 4.914062 -4.085938 5.832031 -3.1875 7 -2.53125 C 8.175781 -1.882812 9.484375 -1.5625 10.921875 -1.5625 Z M 10.921875 -1.5625 "/></g></g><g style="fill:#000000;fill-opacity:1;"><g transform="translate(151.863517, 267.738177)"><path style="stroke:none" d="M 14.4375 -9.390625 C 15.625 -9.128906 16.539062 -8.613281 17.1875 -7.84375 C 17.84375 -7.070312 18.171875 -6.078125 18.171875 -4.859375 C 18.171875 -3.296875 17.59375 -2.09375 16.4375 -1.25 C 15.289062 -0.414062 13.59375 0 11.34375 0 L 2.96875 0 L 2.96875 -18.203125 L 10.8125 -18.203125 C 12.84375 -18.203125 14.414062 -17.789062 15.53125 -16.96875 C 16.65625 -16.15625 17.21875 -15.003906 17.21875 -13.515625 C 17.21875 -12.515625 16.96875 -11.660156 16.46875 -10.953125 C 15.976562 -10.253906 15.300781 -9.734375 14.4375 -9.390625 Z M 4.890625 -16.609375 L 4.890625 -10.015625 L 10.6875 -10.015625 C 12.15625 -10.015625 13.285156 -10.296875 14.078125 -10.859375 C 14.878906 -11.421875 15.28125 -12.238281 15.28125 -13.3125 C 15.28125 -14.382812 14.878906 -15.203125 14.078125 -15.765625 C 13.285156 -16.328125 12.15625 -16.609375 10.6875 -16.609375 Z M 11.3125 -1.59375 C 12.9375 -1.59375 14.164062 -1.867188 15 -2.421875 C 15.832031 -2.972656 16.25 -3.835938 16.25 -5.015625 C 16.25 -7.285156 14.601562 -8.421875 11.3125 -8.421875 L 4.890625 -8.421875 L 4.890625 -1.59375 Z M 11.3125 -1.59375 "/></g></g><g style="fill:#000000;fill-opacity:1;"><g transform="translate(170.109644, 267.738177)"><path style="stroke:none" d="M 14.375 -4.859375 L 4.234375 -4.859375 L 2.046875 0 L 0.046875 0 L 8.375 -18.203125 L 10.265625 -18.203125 L 18.59375 0 L 16.5625 0 Z M 13.671875 -6.421875 L 9.3125 -16.203125 L 4.9375 -6.421875 Z M 13.671875 -6.421875 "/></g></g><g style="fill:#000000;fill-opacity:1;"><g transform="translate(187.394056, 267.738177)"><path style="stroke:none" d="M 2.96875 -18.203125 L 4.890625 -18.203125 L 4.890625 -1.65625 L 15.078125 -1.65625 L 15.078125 0 L 2.96875 0 Z M 2.96875 -18.203125 "/></g></g><g style="fill:#000000;fill-opacity:1;"><g transform="translate(201.355198, 267.738177)"><path style="stroke:none" d=""/></g></g><g transform="matrix(1,0,0,1,134,276)"><g clip-path="url(#424a1f6ea4)"><g style="fill:#323232;fill-opacity:1;"><g transform="translate(1.654537, 7.868856)"><path style="stroke:none" d="M 0.78125 -5.78125 L 1.84375 -5.78125 L 1.84375 0 L 0.78125 0 Z M 0.78125 -5.78125 "/></g></g><g style="fill:#323232;fill-opacity:1;"><g transform="translate(9.294141, 7.868856)"><path style="stroke:none" d="M 1.953125 -4.875 L 0.03125 -4.875 L 0.03125 -5.78125 L 4.9375 -5.78125 L 4.9375 -4.875 L 3.03125 -4.875 L 3.03125 0 L 1.953125 0 Z M 1.953125 -4.875 "/></g></g><g style="fill:#323232;fill-opacity:1;"><g transform="translate(19.273581, 7.868856)"><path style="stroke:none" d=""/></g></g><g style="fill:#323232;fill-opacity:1;"><g transform="translate(26.557658, 7.868856)"><path style="stroke:none" d="M 3.453125 0.078125 C 2.867188 0.078125 2.34375 -0.046875 1.875 -0.296875 C 1.40625 -0.554688 1.035156 -0.910156 0.765625 -1.359375 C 0.492188 -1.816406 0.359375 -2.328125 0.359375 -2.890625 C 0.359375 -3.460938 0.492188 -3.972656 0.765625 -4.421875 C 1.035156 -4.867188 1.40625 -5.222656 1.875 -5.484375 C 2.351562 -5.742188 2.882812 -5.875 3.46875 -5.875 C 3.9375 -5.875 4.363281 -5.789062 4.75 -5.625 C 5.144531 -5.457031 5.476562 -5.21875 5.75 -4.90625 L 5.0625 -4.25 C 4.644531 -4.695312 4.128906 -4.921875 3.515625 -4.921875 C 3.117188 -4.921875 2.757812 -4.832031 2.4375 -4.65625 C 2.125 -4.488281 1.878906 -4.25 1.703125 -3.9375 C 1.535156 -3.632812 1.453125 -3.285156 1.453125 -2.890625 C 1.453125 -2.503906 1.535156 -2.15625 1.703125 -1.84375 C 1.878906 -1.53125 2.125 -1.285156 2.4375 -1.109375 C 2.757812 -0.941406 3.117188 -0.859375 3.515625 -0.859375 C 4.128906 -0.859375 4.644531 -1.085938 5.0625 -1.546875 L 5.75 -0.890625 C 5.476562 -0.566406 5.144531 -0.320312 4.75 -0.15625 C 4.363281 0 3.929688 0.078125 3.453125 0.078125 Z M 3.453125 0.078125 "/></g></g><g style="fill:#323232;fill-opacity:1;"><g transform="translate(37.570603, 7.868856)"><path style="stroke:none" d="M 3.484375 0.078125 C 2.890625 0.078125 2.351562 -0.046875 1.875 -0.296875 C 1.40625 -0.554688 1.035156 -0.910156 0.765625 -1.359375 C 0.492188 -1.816406 0.359375 -2.328125 0.359375 -2.890625 C 0.359375 -3.453125 0.492188 -3.957031 0.765625 -4.40625 C 1.035156 -4.863281 1.40625 -5.222656 1.875 -5.484375 C 2.351562 -5.742188 2.890625 -5.875 3.484375 -5.875 C 4.066406 -5.875 4.59375 -5.742188 5.0625 -5.484375 C 5.539062 -5.222656 5.914062 -4.867188 6.1875 -4.421875 C 6.457031 -3.972656 6.59375 -3.460938 6.59375 -2.890625 C 6.59375 -2.328125 6.457031 -1.816406 6.1875 -1.359375 C 5.914062 -0.910156 5.539062 -0.554688 5.0625 -0.296875 C 4.59375 -0.046875 4.066406 0.078125 3.484375 0.078125 Z M 3.484375 -0.859375 C 3.867188 -0.859375 4.210938 -0.941406 4.515625 -1.109375 C 4.828125 -1.285156 5.070312 -1.53125 5.25 -1.84375 C 5.425781 -2.15625 5.515625 -2.503906 5.515625 -2.890625 C 5.515625 -3.273438 5.425781 -3.625 5.25 -3.9375 C 5.070312 -4.25 4.828125 -4.488281 4.515625 -4.65625 C 4.210938 -4.832031 3.867188 -4.921875 3.484375 -4.921875 C 3.097656 -4.921875 2.75 -4.832031 2.4375 -4.65625 C 2.125 -4.488281 1.878906 -4.25 1.703125 -3.9375 C 1.535156 -3.625 1.453125 -3.273438 1.453125 -2.890625 C 1.453125 -2.503906 1.535156 -2.15625 1.703125 -1.84375 C 1.878906 -1.53125 2.125 -1.285156 2.4375 -1.109375 C 2.75 -0.941406 3.097656 -0.859375 3.484375 -0.859375 Z M 3.484375 -0.859375 "/></g></g><g style="fill:#323232;fill-opacity:1;"><g transform="translate(49.534364, 7.868856)"><path style="stroke:none" d="M 3.265625 0.078125 C 2.460938 0.078125 1.835938 -0.144531 1.390625 -0.59375 C 0.953125 -1.039062 0.734375 -1.679688 0.734375 -2.515625 L 0.734375 -5.78125 L 1.796875 -5.78125 L 1.796875 -2.5625 C 1.796875 -1.425781 2.285156 -0.859375 3.265625 -0.859375 C 4.242188 -0.859375 4.734375 -1.425781 4.734375 -2.5625 L 4.734375 -5.78125 L 5.796875 -5.78125 L 5.796875 -2.515625 C 5.796875 -1.679688 5.570312 -1.039062 5.125 -0.59375 C 4.6875 -0.144531 4.066406 0.078125 3.265625 0.078125 Z M 3.265625 0.078125 "/></g></g><g style="fill:#323232;fill-opacity:1;"><g transform="translate(61.059924, 7.868856)"><path style="stroke:none" d="M 4.5625 0 L 3.375 -1.6875 C 3.332031 -1.6875 3.257812 -1.6875 3.15625 -1.6875 L 1.84375 -1.6875 L 1.84375 0 L 0.78125 0 L 0.78125 -5.78125 L 3.15625 -5.78125 C 3.65625 -5.78125 4.09375 -5.695312 4.46875 -5.53125 C 4.84375 -5.375 5.128906 -5.140625 5.328125 -4.828125 C 5.523438 -4.515625 5.625 -4.148438 5.625 -3.734375 C 5.625 -3.296875 5.515625 -2.914062 5.296875 -2.59375 C 5.085938 -2.28125 4.785156 -2.050781 4.390625 -1.90625 L 5.71875 0 Z M 4.53125 -3.734375 C 4.53125 -4.097656 4.410156 -4.378906 4.171875 -4.578125 C 3.929688 -4.773438 3.578125 -4.875 3.109375 -4.875 L 1.84375 -4.875 L 1.84375 -2.578125 L 3.109375 -2.578125 C 3.578125 -2.578125 3.929688 -2.675781 4.171875 -2.875 C 4.410156 -3.070312 4.53125 -3.359375 4.53125 -3.734375 Z M 4.53125 -3.734375 "/></g></g><g style="fill:#323232;fill-opacity:1;"><g transform="translate(72.105943, 7.868856)"><path style="stroke:none" d="M 2.578125 0.078125 C 2.128906 0.078125 1.695312 0.015625 1.28125 -0.109375 C 0.863281 -0.234375 0.535156 -0.398438 0.296875 -0.609375 L 0.65625 -1.453125 C 0.894531 -1.265625 1.1875 -1.109375 1.53125 -0.984375 C 1.875 -0.867188 2.222656 -0.8125 2.578125 -0.8125 C 3.003906 -0.8125 3.320312 -0.878906 3.53125 -1.015625 C 3.75 -1.148438 3.859375 -1.332031 3.859375 -1.5625 C 3.859375 -1.726562 3.796875 -1.863281 3.671875 -1.96875 C 3.554688 -2.070312 3.40625 -2.15625 3.21875 -2.21875 C 3.039062 -2.28125 2.796875 -2.351562 2.484375 -2.4375 C 2.035156 -2.539062 1.675781 -2.644531 1.40625 -2.75 C 1.132812 -2.851562 0.898438 -3.015625 0.703125 -3.234375 C 0.503906 -3.460938 0.40625 -3.765625 0.40625 -4.140625 C 0.40625 -4.460938 0.492188 -4.753906 0.671875 -5.015625 C 0.847656 -5.273438 1.109375 -5.484375 1.453125 -5.640625 C 1.804688 -5.796875 2.238281 -5.875 2.75 -5.875 C 3.09375 -5.875 3.4375 -5.828125 3.78125 -5.734375 C 4.125 -5.648438 4.421875 -5.523438 4.671875 -5.359375 L 4.328125 -4.515625 C 4.078125 -4.671875 3.8125 -4.785156 3.53125 -4.859375 C 3.257812 -4.929688 2.992188 -4.96875 2.734375 -4.96875 C 2.304688 -4.96875 1.988281 -4.894531 1.78125 -4.75 C 1.582031 -4.613281 1.484375 -4.425781 1.484375 -4.1875 C 1.484375 -4.019531 1.539062 -3.882812 1.65625 -3.78125 C 1.769531 -3.675781 1.914062 -3.59375 2.09375 -3.53125 C 2.28125 -3.476562 2.535156 -3.410156 2.859375 -3.328125 C 3.285156 -3.234375 3.632812 -3.128906 3.90625 -3.015625 C 4.1875 -2.910156 4.421875 -2.75 4.609375 -2.53125 C 4.804688 -2.3125 4.90625 -2.015625 4.90625 -1.640625 C 4.90625 -1.316406 4.816406 -1.023438 4.640625 -0.765625 C 4.472656 -0.503906 4.210938 -0.296875 3.859375 -0.140625 C 3.503906 0.00390625 3.078125 0.078125 2.578125 0.078125 Z M 2.578125 0.078125 "/></g></g><g style="fill:#323232;fill-opacity:1;"><g transform="translate(82.308621, 7.868856)"><path style="stroke:none" d="M 5.109375 -0.90625 L 5.109375 0 L 0.78125 0 L 0.78125 -5.78125 L 5 -5.78125 L 5 -4.890625 L 1.84375 -4.890625 L 1.84375 -3.375 L 4.640625 -3.375 L 4.640625 -2.5 L 1.84375 -2.5 L 1.84375 -0.90625 Z M 5.109375 -0.90625 "/></g></g><g style="fill:#323232;fill-opacity:1;"><g transform="translate(92.850289, 7.868856)"><path style="stroke:none" d="M 2.578125 0.078125 C 2.128906 0.078125 1.695312 0.015625 1.28125 -0.109375 C 0.863281 -0.234375 0.535156 -0.398438 0.296875 -0.609375 L 0.65625 -1.453125 C 0.894531 -1.265625 1.1875 -1.109375 1.53125 -0.984375 C 1.875 -0.867188 2.222656 -0.8125 2.578125 -0.8125 C 3.003906 -0.8125 3.320312 -0.878906 3.53125 -1.015625 C 3.75 -1.148438 3.859375 -1.332031 3.859375 -1.5625 C 3.859375 -1.726562 3.796875 -1.863281 3.671875 -1.96875 C 3.554688 -2.070312 3.40625 -2.15625 3.21875 -2.21875 C 3.039062 -2.28125 2.796875 -2.351562 2.484375 -2.4375 C 2.035156 -2.539062 1.675781 -2.644531 1.40625 -2.75 C 1.132812 -2.851562 0.898438 -3.015625 0.703125 -3.234375 C 0.503906 -3.460938 0.40625 -3.765625 0.40625 -4.140625 C 0.40625 -4.460938 0.492188 -4.753906 0.671875 -5.015625 C 0.847656 -5.273438 1.109375 -5.484375 1.453125 -5.640625 C 1.804688 -5.796875 2.238281 -5.875 2.75 -5.875 C 3.09375 -5.875 3.4375 -5.828125 3.78125 -5.734375 C 4.125 -5.648438 4.421875 -5.523438 4.671875 -5.359375 L 4.328125 -4.515625 C 4.078125 -4.671875 3.8125 -4.785156 3.53125 -4.859375 C 3.257812 -4.929688 2.992188 -4.96875 2.734375 -4.96875 C 2.304688 -4.96875 1.988281 -4.894531 1.78125 -4.75 C 1.582031 -4.613281 1.484375 -4.425781 1.484375 -4.1875 C 1.484375 -4.019531 1.539062 -3.882812 1.65625 -3.78125 C 1.769531 -3.675781 1.914062 -3.59375 2.09375 -3.53125 C 2.28125 -3.476562 2.535156 -3.410156 2.859375 -3.328125 C 3.285156 -3.234375 3.632812 -3.128906 3.90625 -3.015625 C 4.1875 -2.910156 4.421875 -2.75 4.609375 -2.53125 C 4.804688 -2.3125 4.90625 -2.015625 4.90625 -1.640625 C 4.90625 -1.316406 4.816406 -1.023438 4.640625 -0.765625 C 4.472656 -0.503906 4.210938 -0.296875 3.859375 -0.140625 C 3.503906 0.00390625 3.078125 0.078125 2.578125 0.078125 Z M 2.578125 0.078125 "/></g></g><g style="fill:#323232;fill-opacity:1;"><g transform="translate(103.055323, 7.868856)"><path style="stroke:none" d=""/></g></g></g></g><g style="fill:#1c9ae1;fill-opacity:1;"><g transform="translate(208.174868, 267.738177)"><path style="stroke:none" d="M 5.921875 -14.765625 L 0.109375 -14.765625 L 0.109375 -18.203125 L 15.96875 -18.203125 L 15.96875 -14.765625 L 10.140625 -14.765625 L 10.140625 0 L 5.921875 0 Z M 5.921875 -14.765625 "/></g></g><g style="fill:#1c9ae1;fill-opacity:1;"><g transform="translate(222.886052, 267.738177)"><path style="stroke:none" d="M 16.25 -3.375 L 16.25 0 L 2.15625 0 L 2.15625 -18.203125 L 15.90625 -18.203125 L 15.90625 -14.8125 L 6.34375 -14.8125 L 6.34375 -10.875 L 14.796875 -10.875 L 14.796875 -7.59375 L 6.34375 -7.59375 L 6.34375 -3.375 Z M 16.25 -3.375 "/></g></g><g style="fill:#1c9ae1;fill-opacity:1;"><g transform="translate(238.974819, 267.738177)"><path style="stroke:none" d="M 10.875 0.3125 C 9.019531 0.3125 7.34375 -0.0859375 5.84375 -0.890625 C 4.34375 -1.703125 3.160156 -2.820312 2.296875 -4.25 C 1.441406 -5.675781 1.015625 -7.289062 1.015625 -9.09375 C 1.015625 -10.894531 1.441406 -12.507812 2.296875 -13.9375 C 3.160156 -15.375 4.34375 -16.492188 5.84375 -17.296875 C 7.34375 -18.109375 9.023438 -18.515625 10.890625 -18.515625 C 12.472656 -18.515625 13.898438 -18.234375 15.171875 -17.671875 C 16.441406 -17.117188 17.507812 -16.320312 18.375 -15.28125 L 15.671875 -12.796875 C 14.441406 -14.210938 12.921875 -14.921875 11.109375 -14.921875 C 9.972656 -14.921875 8.960938 -14.671875 8.078125 -14.171875 C 7.203125 -13.679688 6.515625 -12.992188 6.015625 -12.109375 C 5.523438 -11.234375 5.28125 -10.226562 5.28125 -9.09375 C 5.28125 -7.96875 5.523438 -6.960938 6.015625 -6.078125 C 6.515625 -5.203125 7.203125 -4.515625 8.078125 -4.015625 C 8.960938 -3.523438 9.972656 -3.28125 11.109375 -3.28125 C 12.921875 -3.28125 14.441406 -4 15.671875 -5.4375 L 18.375 -2.9375 C 17.507812 -1.882812 16.4375 -1.078125 15.15625 -0.515625 C 13.875 0.0351562 12.445312 0.3125 10.875 0.3125 Z M 10.875 0.3125 "/></g></g><g style="fill:#1c9ae1;fill-opacity:1;"><g transform="translate(256.675109, 267.738177)"><path style="stroke:none" d="M 18.84375 -18.203125 L 18.84375 0 L 14.640625 0 L 14.640625 -7.46875 L 6.375 -7.46875 L 6.375 0 L 2.15625 0 L 2.15625 -18.203125 L 6.375 -18.203125 L 6.375 -11.03125 L 14.640625 -11.03125 L 14.640625 -18.203125 Z M 18.84375 -18.203125 "/></g></g></g></svg>